Coordinates
version=1
nRows=54
nColumns=12
inDegrees=yes

Units are S.I. units (second, meters, Newtons, ...)
Angles are in degrees

endheader
time	SC_y	SC_z	SC_x	AC_y	AC_z	AC_x	GH_y	GH_z	GH_yy	EL_x	PS_y
       0.0              -18.43          24.84          38.39          53.82          1.494          12.43         -172.3           15.8         -101.2          137.9          137.5
   0.01786              -18.43          24.83          38.39          53.82          1.491          12.43         -172.2           15.8         -101.2          137.9          137.5
   0.03571              -18.44          24.83          38.39          53.83          1.489          12.43         -172.2           15.8         -101.1          137.9          137.5
   0.05357              -18.44          24.83          38.38          53.83          1.486          12.43         -172.1           15.8         -101.1          137.9          137.4
   0.07143              -18.44          24.82          38.38          53.83          1.484          12.43         -172.1           15.8         -101.1          137.8          137.4
   0.08928              -18.45          24.82          38.37          53.83          1.481          12.43         -172.0           15.8         -101.1          137.8          137.4
    0.1071              -18.45          24.81          38.37          53.84          1.477          12.43         -171.9           15.8         -101.1          137.8          137.4
     0.125              -18.46          24.81          38.37          53.84          1.474          12.43         -171.9           15.8         -101.1          137.8          137.4
    0.1429              -18.46           24.8          38.36          53.84           1.47          12.43         -171.8           15.8         -101.1          137.8          137.3
    0.1607              -18.47           24.8          38.35          53.84          1.466          12.42         -171.7           15.8         -101.0          137.8          137.3
    0.1786              -18.48          24.79          38.35          53.85          1.462          12.42         -171.6           15.8         -101.0          137.8          137.3
    0.1964              -18.48          24.78          38.34          53.85          1.458          12.42         -171.5           15.8         -101.0          137.8          137.3
    0.2143              -18.49          24.78          38.34          53.86          1.453          12.42         -171.4           15.8         -101.0          137.7          137.2
    0.2321               -18.5          24.77          38.33          53.86          1.448          12.42         -171.3           15.8         -100.9          137.7          137.2
      0.25              -18.51          24.76          38.32          53.87          1.442          12.42         -171.2           15.8         -100.9          137.7          137.2
    0.2678              -18.51          24.75          38.31          53.87          1.436          12.42         -171.1           15.8         -100.9          137.7          137.1
    0.2857              -18.53          24.74           38.3          53.88          1.429          12.42         -170.9           15.8         -100.8          137.6          137.1
    0.3036              -18.54          24.73          38.29          53.88          1.422          12.42         -170.8           15.8         -100.8          137.6          137.0
    0.3214              -18.55          24.72          38.28          53.89          1.414          12.42         -170.6           15.8         -100.8          137.6          137.0
    0.3393              -18.56          24.71          38.27           53.9          1.405          12.42         -170.5           15.8         -100.7          137.6          136.9
    0.3571              -18.58          24.69          38.25           53.9          1.395          12.41         -170.3           15.8         -100.7          137.5          136.9
     0.375              -18.59          24.68          38.24          53.91          1.385          12.41         -170.0          15.81         -100.6          137.5          136.8
    0.3928              -18.61          24.66          38.22          53.92          1.373          12.41         -169.8          15.81         -100.6          137.4          136.7
    0.4107              -18.63          24.64           38.2          53.93           1.36          12.41         -169.5          15.81         -100.5          137.4          136.7
    0.4286              -18.65          24.62          38.18          53.95          1.346          12.41         -169.3          15.81         -100.4          137.3          136.6
    0.4464              -18.67           24.6          38.16          53.96           1.33          12.41         -168.9          15.81         -100.3          137.3          136.5
    0.4643               -18.7          24.57          38.14          53.97          1.312           12.4         -168.6          15.81         -100.2          137.2          136.4
    0.4821              -18.73          24.54          38.11          53.99          1.292           12.4         -168.2          15.81         -100.1          137.1          136.2
       0.5              -18.77          24.51          38.07          54.01          1.269           12.4         -167.7          15.81         -100.0          137.0          136.1
    0.5178               -18.8          24.47          38.04          54.03          1.243          12.39         -167.2          15.81         -99.88          137.0          135.9
    0.5357              -18.85          24.43           38.0          54.06          1.214          12.39         -166.6          15.81         -99.73          136.8          135.7
    0.5535               -18.9          24.38          37.95          54.09           1.18          12.38         -165.9          15.82         -99.55          136.7          135.5
    0.5714              -18.96          24.32          37.89          54.12          1.141          12.38         -165.1          15.82         -99.35          136.6          135.3
    0.5893              -19.03          24.26          37.83          54.16          1.095          12.37         -164.1          15.82         -99.11          136.4          135.0
    0.6071              -19.11          24.18          37.75           54.2          1.042          12.37         -163.1          15.82         -98.84          136.2          134.7
     0.625               -19.2          24.09          37.66          54.25         0.9792          12.36         -161.8          15.82         -98.51          136.0          134.3
    0.6428              -19.31          23.98          37.56          54.32         0.9046          12.35         -160.2          15.83         -98.13          135.7          133.8
    0.6607              -19.45          23.85          37.43          54.39         0.8152          12.33         -158.4          15.83         -97.67          135.4          133.2
    0.6785              -19.61          23.69          37.28          54.48         0.7071          12.32         -156.2          15.84         -97.11          135.0          132.6
    0.6964              -19.81           23.5          37.09          54.59          0.575           12.3         -153.5          15.84         -96.42          134.5          131.7
    0.7143              -20.05          23.27          36.86          54.73          0.412          12.28         -150.2          15.85         -95.58          133.9          130.7
    0.7321              -20.36          22.97          36.57           54.9         0.2087          12.25         -146.0          15.86         -94.53          133.1          129.5
      0.75              -20.75           22.6          36.21          55.11       -0.04733          12.21         -140.8          15.88         -93.21          132.2          127.9
    0.7678              -21.23          22.13          35.74          55.39        -0.3729          12.17         -134.2          15.89         -91.52          130.9          125.8
    0.7857              -21.86          21.52          35.15          55.74        -0.7895          12.11         -125.7          15.91         -89.37          129.4          123.2
    0.8035              -22.67          20.74          34.39          56.18         -1.324          12.03         -114.8          15.94          -86.6          127.4          119.9
    0.8214              -23.69          19.75          33.42          56.76         -2.007          11.94         -100.8          15.97         -83.07          124.9          115.6
    0.8393              -24.98           18.5           32.2          57.48         -2.866          11.82         -83.31          16.01         -78.63          121.7          110.3
    0.8571              -26.56          16.98          30.72          58.35         -3.913          11.67         -61.96          16.07         -73.22          117.8          103.7
     0.875              -28.38          15.22           29.0          59.37         -5.126           11.5          -37.2          16.12         -66.95          113.3          96.14
    0.8928              -30.36          13.31          27.13          60.47         -6.439          11.32          -10.4          16.19         -60.16          108.4          87.94
    0.9107              -32.33          11.41          25.27          61.57         -7.753          11.13           16.4          16.25         -53.37          103.5          79.74
    0.9285              -34.16          9.644          23.54          62.59         -8.966          10.96          41.15          16.31         -47.09          98.98          72.16
    0.9464              -35.73          8.124          22.06          63.47         -10.01          10.82          62.51          16.36         -41.68          95.08          65.62
